# xmcd
# Copyright (C) 1995-1998 Ti Kan
#
# Track frame offsets:
#       150
#       44764
#       98189
#       162206
#       225782
#       290472
#
# Disc length: 4564 seconds
#
# Revision: 0
# Processed by: cddbd v1.5.1PL0 Copyright (c) Steve Scherf et al.
# Submitted via: CD-Transfer v1.0
#
DISCID=4611d206
DTITLE=Schubert and Brahms - Sir Adrian Boult - 
DYEAR=1973
DGENRE=
TTITLE0=Brahms - Acad. Festival Ouverture Op.80
TTITLE1=Brahms - Alto Rhapsody Op 53
TTITLE2=Schubert - Symph No 9 - Andante - Allegro ma non troppo
TTITLE3=Schubert - Symph No 9 - Andante con moto
TTITLE4=Schubert - Symph No 9 - Scherzo
TTITLE5=Schubert - Symph No 9 - Finale (Allegro vivace)
EXTD=
EXTT0=
EXTT1=
EXTT2=
EXTT3=
EXTT4=
EXTT5=
PLAYORDER=
